<?xml version="1.0" standalone="no"?>
<!DOCTYPE svg PUBLIC "-//W3C//DTD SVG 20010904//EN"
 "http://www.w3.org/TR/2001/REC-SVG-20010904/DTD/svg10.dtd">
<svg version="1.0" xmlns="http://www.w3.org/2000/svg"
 width="500.000000pt" height="500.000000pt" viewBox="0 0 500.000000 500.000000"
 preserveAspectRatio="xMidYMid meet">

<g transform="translate(0.000000,500.000000) scale(0.100000,-0.100000)"
fill="#000000" stroke="none">
<path d="M2442 3898 c1 -676 4 -928 9 -743 3 154 7 612 8 1018 l1 739 75 -4
c41 -2 75 0 75 5 0 4 -38 7 -85 7 l-85 0 2 -1022z"/>
<path d="M2722 4253 l3 -288 2 283 3 282 45 0 c24 0 47 -4 50 -10 3 -5 14 -10
23 -10 11 0 6 6 -12 15 -15 8 -48 15 -72 15 l-44 0 2 -287z"/>
<path d="M880 4522 c-25 -4 -51 -11 -57 -15 -18 -12 -19 -3497 -1 -3515 9 -9
97 -12 335 -12 l323 0 1 533 c2 654 9 902 27 903 6 1 206 2 442 3 l430 1 0
298 c0 218 -3 301 -12 310 -9 9 -121 12 -443 12 l-432 0 -7 248 c-3 136 -6
466 -6 734 0 360 -3 489 -12 494 -16 10 -531 14 -588 6z"/>
<path d="M3053 4503 c9 -2 25 -2 35 0 9 3 1 5 -18 5 -19 0 -27 -2 -17 -5z"/>
<path d="M3148 4483 c6 -2 18 -2 25 0 6 3 1 5 -13 5 -14 0 -19 -2 -12 -5z"/>
<path d="M3198 4473 c7 -3 16 -2 19 1 4 3 -2 6 -13 5 -11 0 -14 -3 -6 -6z"/>
<path d="M3294 4445 c15 -8 36 -15 45 -15 9 0 4 6 -13 15 -15 8 -36 15 -45 15
-9 0 -4 -6 13 -15z"/>
<path d="M3398 4408 c5 -5 16 -8 23 -6 8 3 3 7 -10 11 -17 4 -21 3 -13 -5z"/>
<path d="M3450 4392 c0 -4 19 -17 43 -27 51 -22 155 -85 193 -117 16 -13 57
-51 91 -84 35 -34 63 -56 63 -49 0 10 -76 84 -125 122 -37 29 -93 70 -110 80
-52 33 -155 82 -155 75z"/>
<path d="M3850 4094 c0 -10 49 -73 50 -63 0 3 -11 20 -25 39 -14 19 -25 30
-25 24z"/>
<path d="M3900 4010 c0 -5 4 -11 9 -15 10 -5 44 -74 55 -109 4 -10 9 -16 12
-13 3 3 -6 30 -20 61 -14 30 -26 59 -26 64 0 6 -7 12 -15 16 -8 3 -15 1 -15
-4z"/>
<path d="M2773 3953 c20 -2 54 -2 75 0 20 2 3 4 -38 4 -41 0 -58 -2 -37 -4z"/>
<path d="M3153 3880 c2 -8 14 -20 26 -26 13 -7 28 -17 34 -23 6 -6 16 -11 22
-11 14 1 -37 39 -52 40 -7 0 -17 8 -23 18 -8 11 -10 12 -7 2z"/>
<path d="M3981 3844 c0 -11 3 -14 6 -6 3 7 2 16 -1 19 -3 4 -6 -2 -5 -13z"/>
<path d="M3264 3791 c20 -22 26 -25 26 -13 0 4 -10 13 -22 21 -23 14 -23 14
-4 -8z"/>
<path d="M3300 3752 c0 -6 4 -13 9 -16 11 -7 51 -82 61 -116 7 -21 8 -22 9 -4
1 23 -20 74 -31 74 -5 0 -8 8 -8 18 0 11 -9 27 -20 37 -11 10 -20 13 -20 7z"/>
<path d="M4010 3730 c0 -11 4 -20 9 -20 5 0 7 9 4 20 -3 11 -7 20 -9 20 -2 0
-4 -9 -4 -20z"/>
<path d="M4033 3555 c0 -22 2 -30 4 -17 2 12 2 30 0 40 -3 9 -5 -1 -4 -23z"/>
<path d="M3382 3540 c0 -14 2 -19 5 -12 2 6 2 18 0 25 -3 6 -5 1 -5 -13z"/>
<path d="M3370 3452 c0 -11 -9 -27 -20 -37 -11 -10 -20 -23 -20 -30 0 -20 -99
-102 -144 -118 -10 -4 -16 -10 -13 -14 14 -14 167 104 167 129 0 5 9 18 20 30
18 19 28 58 15 58 -3 0 -5 -8 -5 -18z"/>
<path d="M4007 3338 c-8 -68 -2 -72 10 -8 6 28 7 53 3 55 -4 2 -10 -19 -13
-47z"/>
<path d="M3117 3235 c-44 -15 -57 -25 -34 -25 9 0 19 5 22 10 3 6 15 10 25 10
10 0 22 5 25 10 7 12 9 12 -38 -5z"/>
<path d="M3981 3233 c0 -12 -5 -24 -10 -27 -5 -3 -12 -21 -15 -40 -4 -19 -10
-36 -14 -38 -12 -5 -44 -68 -35 -68 11 0 63 101 63 121 0 8 5 20 11 26 6 6 9
19 6 29 -4 16 -5 16 -6 -3z"/>
<path d="M3028 3203 c7 -3 16 -2 19 1 4 3 -2 6 -13 5 -11 0 -14 -3 -6 -6z"/>
<path d="M2970 3190 l-35 -7 32 -2 c17 0 35 4 38 9 3 6 5 9 3 9 -2 -1 -19 -5
-38 -9z"/>
<path d="M2855 3165 l-40 -14 40 6 c22 3 44 9 50 14 12 12 -1 10 -50 -6z"/>
<path d="M2722 2838 l-2 -308 38 2 c36 1 36 1 5 5 l-33 4 -3 302 -2 302 -3
-307z"/>
<path d="M3368 2676 c-15 -8 -40 -17 -55 -19 l-28 -4 30 -1 c17 -1 48 7 70 17
22 11 33 20 25 20 -8 1 -27 -6 -42 -13z"/>
<path d="M3175 2620 c-4 -7 3 -8 22 -4 38 9 42 14 10 14 -14 0 -29 -5 -32 -10z"/>
<path d="M3128 2603 c6 -2 18 -2 25 0 6 3 1 5 -13 5 -14 0 -19 -2 -12 -5z"/>
<path d="M2988 2583 c-16 -2 -28 -9 -28 -14 0 -9 35 -4 75 12 l20 8 -20 -1
c-11 -1 -32 -3 -47 -5z"/>
<path d="M2838 2553 c12 -2 32 -2 45 0 12 2 2 4 -23 4 -25 0 -35 -2 -22 -4z"/>
<path d="M3580 2008 c0 -6 -11 -26 -25 -44 -14 -18 -25 -36 -25 -41 0 -5 -34
-42 -75 -83 -41 -41 -75 -71 -75 -67 0 5 -19 -7 -42 -26 -24 -18 -60 -42 -81
-51 -21 -10 -36 -20 -34 -23 6 -6 110 51 157 85 66 50 174 167 185 200 3 12
10 22 15 22 4 0 10 9 13 20 3 11 1 20 -4 20 -5 0 -9 -5 -9 -12z"/>
<path d="M3815 1999 c74 -40 135 -69 145 -69 5 0 10 -4 10 -9 0 -5 14 -12 30
-16 17 -4 30 -11 30 -16 0 -5 5 -9 11 -9 25 0 -8 23 -89 61 -48 23 -94 47
-102 54 -8 8 -28 16 -45 20 -27 5 -26 4 10 -16z"/>
<path d="M4088 1858 c5 -5 16 -8 23 -6 8 3 3 7 -10 11 -17 4 -21 3 -13 -5z"/>
<path d="M4131 1837 c2 -1 13 -9 24 -17 19 -14 19 -14 6 3 -7 9 -18 17 -24 17
-6 0 -8 -1 -6 -3z"/>
<path d="M4155 1768 c-4 -13 -7 -28 -6 -34 1 -5 -7 -19 -17 -30 -17 -18 -38
-74 -28 -74 7 0 54 102 62 133 7 33 -1 36 -11 5z"/>
<path d="M3176 1655 c-15 -8 -36 -15 -45 -16 -11 0 -12 -2 -3 -6 12 -5 82 23
82 32 0 7 -2 6 -34 -10z"/>
<path d="M3045 1610 l-30 -8 27 -1 c15 0 30 4 33 9 3 6 5 9 3 9 -2 -1 -16 -5
-33 -9z"/>
<path d="M2940 1590 c-24 -8 -23 -8 8 -9 20 -1 31 3 27 9 -3 6 -7 10 -8 9 -1
-1 -13 -5 -27 -9z"/>
<path d="M4056 1574 c-9 -23 -2 -28 13 -10 7 8 8 17 3 20 -6 3 -13 -1 -16 -10z"/>
<path d="M2833 1573 c15 -2 39 -2 55 0 15 2 2 4 -28 4 -30 0 -43 -2 -27 -4z"/>
<path d="M2720 1270 l0 -300 63 2 62 2 -58 3 -58 4 3 295 c2 161 0 294 -4 294
-5 0 -8 -135 -8 -300z"/>
<path d="M4017 1513 c-11 -13 -17 -26 -15 -29 7 -7 40 34 37 44 -2 6 -12 -1
-22 -15z"/>
<path d="M3892 1371 c-90 -92 -140 -131 -227 -176 -22 -11 -41 -23 -43 -27 -2
-5 -10 -8 -18 -8 -8 0 -14 -4 -14 -10 0 -12 27 -2 65 24 38 27 65 43 93 56 27
12 249 226 242 233 -3 2 -47 -39 -98 -92z"/>
<path d="M2440 1245 c0 -117 4 -185 10 -185 6 0 10 68 10 185 0 117 -4 185
-10 185 -6 0 -10 -68 -10 -185z"/>
<path d="M3543 1133 c-7 -2 -13 -8 -13 -13 0 -10 38 -1 46 11 6 10 -13 11 -33
2z"/>
<path d="M3460 1094 c-22 -12 -23 -14 -5 -14 11 1 29 7 39 15 26 19 1 18 -34
-1z"/>
<path d="M3390 1070 c0 -13 11 -13 30 0 12 8 11 10 -7 10 -13 0 -23 -4 -23
-10z"/>
<path d="M3235 1031 c-21 -5 -25 -8 -15 -13 9 -3 29 0 45 7 32 14 19 17 -30 6z"/>
<path d="M3113 1003 c9 -2 23 -2 30 0 6 3 -1 5 -18 5 -16 0 -22 -2 -12 -5z"/>
<path d="M2938 983 c17 -2 47 -2 65 0 17 2 3 4 -33 4 -36 0 -50 -2 -32 -4z"/>
<path d="M2440 621 c0 -5 7 -12 16 -15 22 -9 142 -7 147 2 3 4 -24 5 -60 4
-38 -2 -70 1 -76 7 -13 13 -27 14 -27 2z"/>
<path d="M2734 456 c-27 -27 -34 -42 -34 -73 0 -67 29 -89 163 -124 77 -19
103 -72 57 -114 -38 -35 -136 -16 -160 31 -17 30 -70 35 -70 5 0 -25 35 -68
73 -88 42 -22 142 -22 184 0 42 22 53 44 53 105 0 43 -4 54 -29 75 -16 13 -60
32 -98 41 -83 21 -113 39 -113 70 0 34 30 56 79 56 34 0 49 -6 73 -30 29 -29
78 -41 78 -19 0 24 -36 70 -66 84 -18 8 -59 15 -94 15 -57 0 -65 -3 -96 -34z"/>
<path d="M3090 435 c0 -48 -2 -55 -20 -55 -15 0 -20 -7 -20 -25 0 -18 5 -25
19 -25 18 0 20 -10 23 -111 3 -126 11 -139 80 -139 34 0 38 3 38 24 0 19 -6
25 -27 28 l-28 3 -3 98 -3 97 31 0 c25 0 30 4 30 25 0 21 -5 25 -30 25 -30 0
-30 1 -30 55 0 54 0 55 -30 55 -30 0 -30 -1 -30 -55z"/>
<path d="M3920 285 l0 -205 25 0 c24 0 25 2 25 78 l1 77 72 -78 c63 -67 76
-78 106 -77 l33 0 -71 79 c-39 43 -71 83 -71 89 0 6 30 38 66 71 l67 61 -39 0
c-35 0 -46 -7 -94 -55 -30 -30 -58 -55 -62 -55 -4 0 -8 50 -8 110 l0 110 -25
0 -25 0 0 -205z"/>
<path d="M3304 346 c-42 -42 -43 -56 -4 -56 17 0 30 4 30 10 0 5 11 17 25 26
32 21 69 12 92 -22 21 -32 11 -39 -63 -49 -74 -9 -118 -40 -122 -87 -4 -51 12
-76 56 -87 39 -11 105 0 117 19 9 15 25 12 25 -5 0 -9 9 -15 25 -15 l25 0 0
121 c0 120 0 121 -29 150 -26 25 -37 29 -86 29 -51 0 -60 -3 -91 -34z m152
-153 c-15 -62 -94 -94 -130 -54 -34 38 18 77 108 80 26 1 28 -1 22 -26z"/>
<path d="M3643 360 c-49 -29 -66 -63 -66 -129 0 -98 53 -155 143 -155 56 1
105 25 125 64 l16 30 -30 0 c-19 0 -40 -10 -55 -25 -64 -64 -160 11 -142 109
7 36 38 70 73 80 24 8 63 -8 76 -30 10 -18 67 -19 67 -1 -1 16 -20 39 -50 60
-34 24 -116 22 -157 -3z"/>
</g>
</svg>
